<svg id="Layer_1" data-name="Layer 1" xmlns="http://www.w3.org/2000/svg" viewBox="0 0 1470 380"><defs><style>.cls-1,.cls-16{fill:#fff;}.cls-1,.cls-16,.cls-9{stroke:#000;stroke-miterlimit:10;}.cls-2{font-size:24px;font-family:MyriadPro-Regular, Myriad Pro;}.cls-3{letter-spacing:-0.01em;}.cls-4{letter-spacing:0em;}.cls-5{letter-spacing:0.02em;}.cls-6{letter-spacing:0.01em;}.cls-7{letter-spacing:0.02em;}.cls-8{letter-spacing:-0.03em;}.cls-9{fill:none;}.cls-16,.cls-9{stroke-width:2px;}.cls-10{letter-spacing:-0.01em;}.cls-11{letter-spacing:-0.01em;}.cls-12{letter-spacing:-0.01em;}.cls-13{letter-spacing:0em;}.cls-14{letter-spacing:-0.01em;}.cls-15{letter-spacing:0em;}.cls-17{letter-spacing:0em;}.cls-18{letter-spacing:-0.01em;}.cls-19{letter-spacing:0.03em;}.cls-20{letter-spacing:0.01em;}.cls-21{letter-spacing:0.02em;}.cls-22{letter-spacing:0em;}</style></defs><rect class="cls-1" x="0.5" y="0.5" width="1469" height="379"/><rect class="cls-1" x="65.5" y="51.5" width="496" height="247.5"/><rect class="cls-1" x="870.5" y="51.5" width="525" height="247.5"/><text class="cls-2" transform="translate(159.17 83.34)">3<tspan class="cls-3" x="12.31" y="0">r</tspan><tspan class="cls-4" x="19.92" y="0">d pa</tspan><tspan class="cls-5" x="63.77" y="0">r</tspan><tspan class="cls-6" x="72.19" y="0">t</tspan><tspan x="80.35" y="0">y UWP pac</tspan><tspan class="cls-7" x="186.4" y="0">k</tspan><tspan x="198.09" y="0">age</tspan></text><text x="-6394" y="-6820.5"/><text class="cls-2" transform="translate(1022.94 83.34)"><tspan class="cls-8">F</tspan><tspan x="10.85" y="0">ull trust UWP pac</tspan><tspan class="cls-7" x="181.7" y="0">k</tspan><tspan x="193.39" y="0">age</tspan></text><line class="cls-9" x1="520.33" y1="130.5" x2="883.15" y2="130.5"/><polygon points="880.23 140.47 897.5 130.5 880.23 120.53 880.23 140.47"/><text class="cls-2" transform="translate(648.87 121.12)"><tspan class="cls-10">C</tspan><tspan x="13.75" y="0">all api</tspan></text><line class="cls-9" x1="897.5" y1="175.25" x2="535.08" y2="175.25"/><polygon points="538 165.28 520.73 175.25 538 185.22 538 165.28"/><text class="cls-2" transform="translate(585.48 159.57)"><tspan class="cls-11">A</tspan><tspan x="14.54" y="0">sync p</tspan><tspan class="cls-12" x="78.17" y="0">r</tspan><tspan class="cls-13" x="85.77" y="0">o</tspan><tspan class="cls-14" x="98.95" y="0">g</tspan><tspan class="cls-3" x="112.22" y="0">r</tspan><tspan class="cls-4" x="119.83" y="0">ess and </tspan><tspan class="cls-12" x="199.46" y="0">r</tspan><tspan class="cls-15" x="207.07" y="0">esults</tspan></text><rect class="cls-16" x="897.5" y="105.5" width="147" height="134"/><rect class="cls-16" x="412.73" y="210.15" width="108" height="75.76"/><text class="cls-2" transform="translate(913.26 154.82)"><tspan class="cls-17">O</tspan><tspan class="cls-15" x="16.61" y="0">ut of p</tspan><tspan class="cls-3" x="81.79" y="0">r</tspan><tspan x="89.4" y="0">oc </tspan><tspan class="cls-18" x="0" y="28.8">c</tspan><tspan x="10.61" y="28.8">om se</tspan><tspan class="cls-19" x="70.42" y="28.8">r</tspan><tspan class="cls-12" x="78.86" y="28.8">v</tspan><tspan x="90.17" y="28.8">er</tspan></text><text class="cls-2" transform="translate(430.2 239.5)"><tspan class="cls-20">S</tspan><tspan x="11.98" y="0">e</tspan><tspan class="cls-21" x="24" y="0">r</tspan><tspan class="cls-12" x="32.45" y="0">v</tspan><tspan x="43.75" y="0">er</tspan><tspan x="0" y="28.8">winmd</tspan></text><rect class="cls-16" x="412.73" y="95.14" width="107.6" height="107.6"/><text class="cls-2" transform="translate(441.28 154.82)"><tspan class="cls-22">A</tspan><tspan x="14.62" y="0">pp</tspan></text></svg>